<mxfile host="app.diagrams.net" modified="2024-06-04T18:27:18.824Z" agent="Mozilla/5.0 (Macintosh; Intel Mac OS X 10_15_7) AppleWebKit/605.1.15 (KHTML, like Gecko) Version/17.0 Safari/605.1.15" etag="leOiPLWt7roUGQQgRDMd" version="24.4.13" type="device">
  <diagram name="Page-1" id="v_siXThTx3_PKxQJEANL">
    <mxGraphModel dx="753" dy="1020" grid="1" gridSize="10" guides="1" tooltips="1" connect="1" arrows="1" fold="1" page="1" pageScale="1" pageWidth="827" pageHeight="1169" math="0" shadow="0">
      <root>
        <mxCell id="0" />
        <mxCell id="1" parent="0" />
        <mxCell id="VzO2mXbsFYCoT9UD0xu1-2" value="Етапи" style="whiteSpace=wrap;html=1;align=center;" vertex="1" parent="1">
          <mxGeometry x="130" y="110" width="100" height="40" as="geometry" />
        </mxCell>
        <mxCell id="VzO2mXbsFYCoT9UD0xu1-3" value="стартов&lt;div&gt;пункт&lt;/div&gt;" style="ellipse;whiteSpace=wrap;html=1;align=center;" vertex="1" parent="1">
          <mxGeometry x="20" y="30" width="100" height="40" as="geometry" />
        </mxCell>
        <mxCell id="VzO2mXbsFYCoT9UD0xu1-4" value="&lt;u&gt;номер&lt;/u&gt;" style="ellipse;whiteSpace=wrap;html=1;align=center;" vertex="1" parent="1">
          <mxGeometry x="280" y="90" width="100" height="40" as="geometry" />
        </mxCell>
        <mxCell id="VzO2mXbsFYCoT9UD0xu1-5" value="дължина" style="ellipse;whiteSpace=wrap;html=1;align=center;" vertex="1" parent="1">
          <mxGeometry x="20" y="180" width="100" height="40" as="geometry" />
        </mxCell>
        <mxCell id="VzO2mXbsFYCoT9UD0xu1-6" value="краен пункт" style="ellipse;whiteSpace=wrap;html=1;align=center;" vertex="1" parent="1">
          <mxGeometry x="10" y="120" width="100" height="40" as="geometry" />
        </mxCell>
        <mxCell id="VzO2mXbsFYCoT9UD0xu1-8" value="дата" style="ellipse;whiteSpace=wrap;html=1;align=center;" vertex="1" parent="1">
          <mxGeometry x="260" y="30" width="100" height="40" as="geometry" />
        </mxCell>
        <mxCell id="VzO2mXbsFYCoT9UD0xu1-11" value="" style="endArrow=none;html=1;rounded=0;entryX=0.435;entryY=0.956;entryDx=0;entryDy=0;entryPerimeter=0;exitX=0.5;exitY=0;exitDx=0;exitDy=0;" edge="1" parent="1" source="VzO2mXbsFYCoT9UD0xu1-2" target="VzO2mXbsFYCoT9UD0xu1-8">
          <mxGeometry relative="1" as="geometry">
            <mxPoint x="290" y="440" as="sourcePoint" />
            <mxPoint x="450" y="440" as="targetPoint" />
          </mxGeometry>
        </mxCell>
        <mxCell id="VzO2mXbsFYCoT9UD0xu1-12" value="" style="endArrow=none;html=1;rounded=0;entryX=0;entryY=0.5;entryDx=0;entryDy=0;exitX=1;exitY=0.25;exitDx=0;exitDy=0;" edge="1" parent="1" source="VzO2mXbsFYCoT9UD0xu1-2" target="VzO2mXbsFYCoT9UD0xu1-4">
          <mxGeometry relative="1" as="geometry">
            <mxPoint x="190" y="120" as="sourcePoint" />
            <mxPoint x="314" y="78" as="targetPoint" />
          </mxGeometry>
        </mxCell>
        <mxCell id="VzO2mXbsFYCoT9UD0xu1-13" value="" style="endArrow=none;html=1;rounded=0;entryX=0.5;entryY=1;entryDx=0;entryDy=0;exitX=0.5;exitY=0;exitDx=0;exitDy=0;" edge="1" parent="1" source="VzO2mXbsFYCoT9UD0xu1-5" target="VzO2mXbsFYCoT9UD0xu1-2">
          <mxGeometry relative="1" as="geometry">
            <mxPoint x="200" y="130" as="sourcePoint" />
            <mxPoint x="324" y="88" as="targetPoint" />
          </mxGeometry>
        </mxCell>
        <mxCell id="VzO2mXbsFYCoT9UD0xu1-16" value="" style="endArrow=none;html=1;rounded=0;exitX=1;exitY=1;exitDx=0;exitDy=0;entryX=0.25;entryY=0;entryDx=0;entryDy=0;" edge="1" parent="1" source="VzO2mXbsFYCoT9UD0xu1-3" target="VzO2mXbsFYCoT9UD0xu1-2">
          <mxGeometry relative="1" as="geometry">
            <mxPoint x="290" y="440" as="sourcePoint" />
            <mxPoint x="150" y="110" as="targetPoint" />
          </mxGeometry>
        </mxCell>
        <mxCell id="VzO2mXbsFYCoT9UD0xu1-18" value="" style="endArrow=none;html=1;rounded=0;exitX=1;exitY=0.5;exitDx=0;exitDy=0;entryX=0;entryY=0.75;entryDx=0;entryDy=0;" edge="1" parent="1" source="VzO2mXbsFYCoT9UD0xu1-6" target="VzO2mXbsFYCoT9UD0xu1-2">
          <mxGeometry relative="1" as="geometry">
            <mxPoint x="290" y="440" as="sourcePoint" />
            <mxPoint x="450" y="440" as="targetPoint" />
          </mxGeometry>
        </mxCell>
        <mxCell id="VzO2mXbsFYCoT9UD0xu1-19" value="Колоездачи" style="whiteSpace=wrap;html=1;align=center;" vertex="1" parent="1">
          <mxGeometry x="660" y="80" width="100" height="40" as="geometry" />
        </mxCell>
        <mxCell id="VzO2mXbsFYCoT9UD0xu1-20" value="националност" style="ellipse;whiteSpace=wrap;html=1;align=center;" vertex="1" parent="1">
          <mxGeometry x="700" y="10" width="100" height="40" as="geometry" />
        </mxCell>
        <mxCell id="VzO2mXbsFYCoT9UD0xu1-21" value="&lt;u&gt;регистрационен номер&lt;/u&gt;" style="ellipse;whiteSpace=wrap;html=1;align=center;" vertex="1" parent="1">
          <mxGeometry x="690" y="140" width="100" height="40" as="geometry" />
        </mxCell>
        <mxCell id="VzO2mXbsFYCoT9UD0xu1-22" value="дата на раждане" style="ellipse;whiteSpace=wrap;html=1;align=center;" vertex="1" parent="1">
          <mxGeometry x="530" y="10" width="100" height="40" as="geometry" />
        </mxCell>
        <mxCell id="VzO2mXbsFYCoT9UD0xu1-23" value="име" style="ellipse;whiteSpace=wrap;html=1;align=center;" vertex="1" parent="1">
          <mxGeometry x="510" y="80" width="100" height="40" as="geometry" />
        </mxCell>
        <mxCell id="VzO2mXbsFYCoT9UD0xu1-24" value="" style="endArrow=none;html=1;rounded=0;entryX=0.5;entryY=1;entryDx=0;entryDy=0;exitX=0.5;exitY=0;exitDx=0;exitDy=0;" edge="1" parent="1" source="VzO2mXbsFYCoT9UD0xu1-21" target="VzO2mXbsFYCoT9UD0xu1-19">
          <mxGeometry relative="1" as="geometry">
            <mxPoint x="450" y="340" as="sourcePoint" />
            <mxPoint x="610" y="340" as="targetPoint" />
          </mxGeometry>
        </mxCell>
        <mxCell id="VzO2mXbsFYCoT9UD0xu1-25" value="" style="endArrow=none;html=1;rounded=0;exitX=0.5;exitY=1;exitDx=0;exitDy=0;entryX=0.5;entryY=0;entryDx=0;entryDy=0;" edge="1" parent="1" source="VzO2mXbsFYCoT9UD0xu1-20" target="VzO2mXbsFYCoT9UD0xu1-19">
          <mxGeometry relative="1" as="geometry">
            <mxPoint x="460" y="350" as="sourcePoint" />
            <mxPoint x="620" y="350" as="targetPoint" />
          </mxGeometry>
        </mxCell>
        <mxCell id="VzO2mXbsFYCoT9UD0xu1-26" value="" style="endArrow=none;html=1;rounded=0;exitX=0.758;exitY=1.015;exitDx=0;exitDy=0;exitPerimeter=0;" edge="1" parent="1" source="VzO2mXbsFYCoT9UD0xu1-22" target="VzO2mXbsFYCoT9UD0xu1-19">
          <mxGeometry relative="1" as="geometry">
            <mxPoint x="470" y="360" as="sourcePoint" />
            <mxPoint x="630" y="360" as="targetPoint" />
          </mxGeometry>
        </mxCell>
        <mxCell id="VzO2mXbsFYCoT9UD0xu1-27" value="" style="endArrow=none;html=1;rounded=0;exitX=1;exitY=0.5;exitDx=0;exitDy=0;entryX=0;entryY=0.5;entryDx=0;entryDy=0;" edge="1" parent="1" source="VzO2mXbsFYCoT9UD0xu1-23" target="VzO2mXbsFYCoT9UD0xu1-19">
          <mxGeometry relative="1" as="geometry">
            <mxPoint x="480" y="370" as="sourcePoint" />
            <mxPoint x="640" y="370" as="targetPoint" />
          </mxGeometry>
        </mxCell>
        <mxCell id="VzO2mXbsFYCoT9UD0xu1-28" value="участват" style="shape=rhombus;perimeter=rhombusPerimeter;whiteSpace=wrap;html=1;align=center;" vertex="1" parent="1">
          <mxGeometry x="360" y="200" width="120" height="60" as="geometry" />
        </mxCell>
        <mxCell id="VzO2mXbsFYCoT9UD0xu1-30" value="" style="endArrow=none;html=1;rounded=0;entryX=0;entryY=1;entryDx=0;entryDy=0;exitX=1;exitY=0.5;exitDx=0;exitDy=0;" edge="1" parent="1" source="VzO2mXbsFYCoT9UD0xu1-28" target="VzO2mXbsFYCoT9UD0xu1-19">
          <mxGeometry relative="1" as="geometry">
            <mxPoint x="490" y="380" as="sourcePoint" />
            <mxPoint x="650" y="380" as="targetPoint" />
          </mxGeometry>
        </mxCell>
        <mxCell id="VzO2mXbsFYCoT9UD0xu1-31" value="" style="endArrow=none;html=1;rounded=0;exitX=1;exitY=1;exitDx=0;exitDy=0;entryX=0;entryY=0.5;entryDx=0;entryDy=0;" edge="1" parent="1" source="VzO2mXbsFYCoT9UD0xu1-2" target="VzO2mXbsFYCoT9UD0xu1-28">
          <mxGeometry relative="1" as="geometry">
            <mxPoint x="500" y="390" as="sourcePoint" />
            <mxPoint x="660" y="390" as="targetPoint" />
          </mxGeometry>
        </mxCell>
        <mxCell id="VzO2mXbsFYCoT9UD0xu1-32" value="част от" style="shape=rhombus;perimeter=rhombusPerimeter;whiteSpace=wrap;html=1;align=center;" vertex="1" parent="1">
          <mxGeometry x="630" y="320" width="120" height="60" as="geometry" />
        </mxCell>
        <mxCell id="VzO2mXbsFYCoT9UD0xu1-33" value="Отбор" style="whiteSpace=wrap;html=1;align=center;" vertex="1" parent="1">
          <mxGeometry x="640" y="480" width="100" height="40" as="geometry" />
        </mxCell>
        <mxCell id="VzO2mXbsFYCoT9UD0xu1-35" value="" style="endArrow=none;html=1;rounded=0;exitX=0.25;exitY=1;exitDx=0;exitDy=0;entryX=0.5;entryY=0;entryDx=0;entryDy=0;" edge="1" parent="1" source="VzO2mXbsFYCoT9UD0xu1-19" target="VzO2mXbsFYCoT9UD0xu1-32">
          <mxGeometry relative="1" as="geometry">
            <mxPoint x="680" y="180" as="sourcePoint" />
            <mxPoint x="670" y="400" as="targetPoint" />
          </mxGeometry>
        </mxCell>
        <mxCell id="VzO2mXbsFYCoT9UD0xu1-36" value="" style="endArrow=none;html=1;rounded=0;exitX=0.5;exitY=1;exitDx=0;exitDy=0;entryX=0.5;entryY=0;entryDx=0;entryDy=0;" edge="1" parent="1" source="VzO2mXbsFYCoT9UD0xu1-32" target="VzO2mXbsFYCoT9UD0xu1-33">
          <mxGeometry relative="1" as="geometry">
            <mxPoint x="690" y="190" as="sourcePoint" />
            <mxPoint x="680" y="410" as="targetPoint" />
          </mxGeometry>
        </mxCell>
        <mxCell id="VzO2mXbsFYCoT9UD0xu1-37" value="регистрационен номер" style="ellipse;whiteSpace=wrap;html=1;align=center;fontStyle=4;" vertex="1" parent="1">
          <mxGeometry x="490" y="470" width="100" height="40" as="geometry" />
        </mxCell>
        <mxCell id="VzO2mXbsFYCoT9UD0xu1-39" value="име" style="ellipse;whiteSpace=wrap;html=1;align=center;" vertex="1" parent="1">
          <mxGeometry x="530" y="565" width="100" height="40" as="geometry" />
        </mxCell>
        <mxCell id="VzO2mXbsFYCoT9UD0xu1-40" value="страна" style="ellipse;whiteSpace=wrap;html=1;align=center;" vertex="1" parent="1">
          <mxGeometry x="670" y="565" width="100" height="40" as="geometry" />
        </mxCell>
        <mxCell id="VzO2mXbsFYCoT9UD0xu1-41" value="" style="endArrow=none;html=1;rounded=0;entryX=0;entryY=0.5;entryDx=0;entryDy=0;exitX=1;exitY=0.5;exitDx=0;exitDy=0;" edge="1" parent="1" source="VzO2mXbsFYCoT9UD0xu1-37" target="VzO2mXbsFYCoT9UD0xu1-33">
          <mxGeometry relative="1" as="geometry">
            <mxPoint x="470" y="480" as="sourcePoint" />
            <mxPoint x="630" y="480" as="targetPoint" />
          </mxGeometry>
        </mxCell>
        <mxCell id="VzO2mXbsFYCoT9UD0xu1-43" value="" style="endArrow=none;html=1;rounded=0;entryX=0.105;entryY=1;entryDx=0;entryDy=0;entryPerimeter=0;exitX=0.582;exitY=0.022;exitDx=0;exitDy=0;exitPerimeter=0;" edge="1" parent="1" source="VzO2mXbsFYCoT9UD0xu1-39" target="VzO2mXbsFYCoT9UD0xu1-33">
          <mxGeometry relative="1" as="geometry">
            <mxPoint x="490" y="660" as="sourcePoint" />
            <mxPoint x="650" y="660" as="targetPoint" />
          </mxGeometry>
        </mxCell>
        <mxCell id="VzO2mXbsFYCoT9UD0xu1-44" value="" style="endArrow=none;html=1;rounded=0;entryX=0.5;entryY=1;entryDx=0;entryDy=0;" edge="1" parent="1" source="VzO2mXbsFYCoT9UD0xu1-40" target="VzO2mXbsFYCoT9UD0xu1-33">
          <mxGeometry relative="1" as="geometry">
            <mxPoint x="470" y="480" as="sourcePoint" />
            <mxPoint x="630" y="480" as="targetPoint" />
          </mxGeometry>
        </mxCell>
        <mxCell id="VzO2mXbsFYCoT9UD0xu1-45" value="Резултати" style="shape=ext;margin=3;double=1;whiteSpace=wrap;html=1;align=center;" vertex="1" parent="1">
          <mxGeometry x="140" y="450" width="100" height="40" as="geometry" />
        </mxCell>
        <mxCell id="VzO2mXbsFYCoT9UD0xu1-46" value="номер на етапа" style="ellipse;whiteSpace=wrap;html=1;align=center;fontStyle=4;" vertex="1" parent="1">
          <mxGeometry x="10" y="390" width="100" height="40" as="geometry" />
        </mxCell>
        <mxCell id="VzO2mXbsFYCoT9UD0xu1-47" value="класиране на етапа" style="ellipse;whiteSpace=wrap;html=1;align=center;" vertex="1" parent="1">
          <mxGeometry x="20" y="470" width="100" height="40" as="geometry" />
        </mxCell>
        <mxCell id="VzO2mXbsFYCoT9UD0xu1-48" value="време на етапа" style="ellipse;whiteSpace=wrap;html=1;align=center;" vertex="1" parent="1">
          <mxGeometry x="140" y="520" width="100" height="40" as="geometry" />
        </mxCell>
        <mxCell id="VzO2mXbsFYCoT9UD0xu1-49" value="общо време" style="ellipse;whiteSpace=wrap;html=1;align=center;" vertex="1" parent="1">
          <mxGeometry x="10" y="310" width="100" height="40" as="geometry" />
        </mxCell>
        <mxCell id="VzO2mXbsFYCoT9UD0xu1-50" value="" style="endArrow=none;html=1;rounded=0;exitX=0.5;exitY=1;exitDx=0;exitDy=0;entryX=0.5;entryY=0;entryDx=0;entryDy=0;" edge="1" parent="1" source="VzO2mXbsFYCoT9UD0xu1-49" target="VzO2mXbsFYCoT9UD0xu1-45">
          <mxGeometry relative="1" as="geometry">
            <mxPoint x="290" y="450" as="sourcePoint" />
            <mxPoint x="450" y="450" as="targetPoint" />
          </mxGeometry>
        </mxCell>
        <mxCell id="VzO2mXbsFYCoT9UD0xu1-52" value="" style="endArrow=none;html=1;rounded=0;entryX=0;entryY=0;entryDx=0;entryDy=0;" edge="1" parent="1" source="VzO2mXbsFYCoT9UD0xu1-46" target="VzO2mXbsFYCoT9UD0xu1-45">
          <mxGeometry relative="1" as="geometry">
            <mxPoint x="290" y="450" as="sourcePoint" />
            <mxPoint x="450" y="450" as="targetPoint" />
          </mxGeometry>
        </mxCell>
        <mxCell id="VzO2mXbsFYCoT9UD0xu1-53" value="" style="endArrow=none;html=1;rounded=0;exitX=1;exitY=0.5;exitDx=0;exitDy=0;entryX=0;entryY=0.75;entryDx=0;entryDy=0;" edge="1" parent="1" source="VzO2mXbsFYCoT9UD0xu1-47" target="VzO2mXbsFYCoT9UD0xu1-45">
          <mxGeometry relative="1" as="geometry">
            <mxPoint x="290" y="450" as="sourcePoint" />
            <mxPoint x="450" y="450" as="targetPoint" />
          </mxGeometry>
        </mxCell>
        <mxCell id="VzO2mXbsFYCoT9UD0xu1-54" value="" style="endArrow=none;html=1;rounded=0;exitX=0.5;exitY=1;exitDx=0;exitDy=0;entryX=0.5;entryY=0;entryDx=0;entryDy=0;" edge="1" parent="1" source="VzO2mXbsFYCoT9UD0xu1-45" target="VzO2mXbsFYCoT9UD0xu1-48">
          <mxGeometry relative="1" as="geometry">
            <mxPoint x="290" y="450" as="sourcePoint" />
            <mxPoint x="450" y="450" as="targetPoint" />
          </mxGeometry>
        </mxCell>
        <mxCell id="VzO2mXbsFYCoT9UD0xu1-57" value="" style="edgeStyle=entityRelationEdgeStyle;fontSize=12;html=1;endArrow=ERoneToMany;rounded=0;exitX=1;exitY=0.75;exitDx=0;exitDy=0;" edge="1" parent="1" source="VzO2mXbsFYCoT9UD0xu1-2" target="VzO2mXbsFYCoT9UD0xu1-45">
          <mxGeometry width="100" height="100" relative="1" as="geometry">
            <mxPoint x="320" y="460" as="sourcePoint" />
            <mxPoint x="420" y="360" as="targetPoint" />
          </mxGeometry>
        </mxCell>
        <mxCell id="VzO2mXbsFYCoT9UD0xu1-59" value="" style="edgeStyle=entityRelationEdgeStyle;fontSize=12;html=1;endArrow=ERoneToMany;rounded=0;exitX=0;exitY=0.75;exitDx=0;exitDy=0;entryX=1;entryY=0.75;entryDx=0;entryDy=0;" edge="1" parent="1" source="VzO2mXbsFYCoT9UD0xu1-19" target="VzO2mXbsFYCoT9UD0xu1-45">
          <mxGeometry width="100" height="100" relative="1" as="geometry">
            <mxPoint x="390" y="460" as="sourcePoint" />
            <mxPoint x="490" y="360" as="targetPoint" />
          </mxGeometry>
        </mxCell>
      </root>
    </mxGraphModel>
  </diagram>
</mxfile>
